<svg width="24" height="24" viewBox="0 0 24 24" fill="none" xmlns="http://www.w3.org/2000/svg">
<path d="M22 8.27V4.23C22 2.64 21.36 2 19.77 2H15.73C14.14 2 13.5 2.64 13.5 4.23V8.27C13.5 9.86 14.14 10.5 15.73 10.5H19.77C21.36 10.5 22 9.86 22 8.27Z" fill="#FF660E"/>
<path d="M10.5 8.52V3.98C10.5 2.57 9.86 2 8.27 2H4.23C2.64 2 2 2.57 2 3.98V8.51C2 9.93 2.64 10.49 4.23 10.49H8.27C9.86 10.5 10.5 9.93 10.5 8.52Z" fill="#FF660E"/>
<path d="M10.5 19.77V15.73C10.5 14.14 9.86 13.5 8.27 13.5H4.23C2.64 13.5 2 14.14 2 15.73V19.77C2 21.36 2.64 22 4.23 22H8.27C9.86 22 10.5 21.36 10.5 19.77Z" fill="#FF660E"/>
<path fill-rule="evenodd" clip-rule="evenodd" d="M13.75 17.5C13.75 17.0858 14.0858 16.75 14.5 16.75H20.5C20.9142 16.75 21.25 17.0858 21.25 17.5C21.25 17.9142 20.9142 18.25 20.5 18.25H14.5C14.0858 18.25 13.75 17.9142 13.75 17.5Z" fill="#FF660E"/>
<path fill-rule="evenodd" clip-rule="evenodd" d="M17.5 13.75C17.9142 13.75 18.25 14.0858 18.25 14.5V20.5C18.25 20.9142 17.9142 21.25 17.5 21.25C17.0858 21.25 16.75 20.9142 16.75 20.5V14.5C16.75 14.0858 17.0858 13.75 17.5 13.75Z" fill="#FF660E"/>
</svg>
