<svg width="24" height="24" viewBox="0 0 24 24" fill="none" xmlns="http://www.w3.org/2000/svg">
<path fill-rule="evenodd" clip-rule="evenodd" d="M4.92029 4.05545C4.33682 4.68381 4 5.65329 4 7V17C4 18.3467 4.33682 19.3162 4.92029 19.9445C5.49131 20.5595 6.4406 21 8 21H16C17.5594 21 18.5087 20.5595 19.0797 19.9445C19.6632 19.3162 20 18.3467 20 17V7C20 5.65329 19.6632 4.68381 19.0797 4.05545C18.5087 3.44051 17.5594 3 16 3H8C6.4406 3 5.49131 3.44051 4.92029 4.05545ZM3.45471 2.69455C4.50869 1.55949 6.0594 1 8 1H16C17.9406 1 19.4913 1.55949 20.5453 2.69455C21.5868 3.81619 22 5.34671 22 7V17C22 18.6533 21.5868 20.1838 20.5453 21.3055C19.4913 22.4405 17.9406 23 16 23H8C6.0594 23 4.50869 22.4405 3.45471 21.3055C2.41318 20.1838 2 18.6533 2 17V7C2 5.34671 2.41318 3.81619 3.45471 2.69455Z" fill="#B9BABD"/>
<path fill-rule="evenodd" clip-rule="evenodd" d="M14.5 3.5C15.0523 3.5 15.5 3.94772 15.5 4.5V6.5C15.5 7.04772 15.9523 7.5 16.5 7.5H18.5C19.0523 7.5 19.5 7.94772 19.5 8.5C19.5 9.05228 19.0523 9.5 18.5 9.5H16.5C14.8477 9.5 13.5 8.15228 13.5 6.5V4.5C13.5 3.94772 13.9477 3.5 14.5 3.5Z" fill="#B9BABD"/>
<path fill-rule="evenodd" clip-rule="evenodd" d="M7 13C7 12.4477 7.44772 12 8 12H12C12.5523 12 13 12.4477 13 13C13 13.5523 12.5523 14 12 14H8C7.44772 14 7 13.5523 7 13Z" fill="#B9BABD"/>
<path fill-rule="evenodd" clip-rule="evenodd" d="M7 17C7 16.4477 7.44772 16 8 16H16C16.5523 16 17 16.4477 17 17C17 17.5523 16.5523 18 16 18H8C7.44772 18 7 17.5523 7 17Z" fill="#B9BABD"/>
</svg>
