<svg width="24" height="24" viewBox="0 0 24 24" fill="none" xmlns="http://www.w3.org/2000/svg">
<path d="M20.2772 4.90686C19.2169 3.82835 17.8114 3.17009 16.3145 3.05098C14.8177 2.93188 13.3282 3.35978 12.1151 4.2574C10.8425 3.29704 9.25839 2.86157 7.68192 3.03867C6.10545 3.21578 4.65367 3.99231 3.61894 5.21189C2.58421 6.43147 2.04339 8.00351 2.10538 9.61143C2.16738 11.2194 2.82758 12.7437 3.95305 13.8776L10.1646 20.1896C10.6848 20.7089 11.3853 21 12.1151 21C12.8449 21 13.5455 20.7089 14.0656 20.1896L20.2772 13.8776C21.4451 12.6855 22.1006 11.073 22.1006 9.39223C22.1006 7.71146 21.4451 6.09897 20.2772 4.90686ZM18.8668 12.4772L12.6553 18.779C12.5846 18.8514 12.5005 18.9089 12.4077 18.9481C12.315 18.9874 12.2156 19.0076 12.1151 19.0076C12.0147 19.0076 11.9152 18.9874 11.8225 18.9481C11.7298 18.9089 11.6457 18.8514 11.575 18.779L5.36341 12.4467C4.57897 11.6332 4.13971 10.5404 4.13971 9.40237C4.13971 8.26432 4.57897 7.17152 5.36341 6.35801C6.16277 5.55733 7.24086 5.10837 8.36417 5.10837C9.48748 5.10837 10.5656 5.55733 11.3649 6.35801C11.4579 6.45312 11.5686 6.52862 11.6904 6.58014C11.8123 6.63166 11.9431 6.65818 12.0751 6.65818C12.2072 6.65818 12.3379 6.63166 12.4598 6.58014C12.5817 6.52862 12.6923 6.45312 12.7853 6.35801C13.5847 5.55733 14.6627 5.10837 15.7861 5.10837C16.9094 5.10837 17.9875 5.55733 18.7868 6.35801C19.582 7.16086 20.0357 8.24774 20.0507 9.38582C20.0656 10.5239 19.6407 11.6227 18.8668 12.4467V12.4772Z" fill="#B9BABD"/>
</svg>
